<svg width="20" height="20" viewBox="0 0 20 20" fill="none" xmlns="http://www.w3.org/2000/svg">
<path fill-rule="evenodd" clip-rule="evenodd" d="M9.12946 3.29612C10.0234 2.40219 11.2358 1.89999 12.5 1.89999H15C15.3314 1.89999 15.6 2.16862 15.6 2.49999V5.83333C15.6 6.1647 15.3314 6.43333 15 6.43333H12.5C12.4381 6.43333 12.3788 6.45791 12.335 6.50167C12.2913 6.54543 12.2667 6.60478 12.2667 6.66666V7.73333H15C15.1848 7.73333 15.3592 7.81845 15.4729 7.96408C15.5866 8.10971 15.6269 8.2996 15.5821 8.47885L14.7488 11.8122C14.682 12.0793 14.442 12.2667 14.1667 12.2667H12.2667V17.5C12.2667 17.8314 11.998 18.1 11.6667 18.1H8.33333C8.00196 18.1 7.73333 17.8314 7.73333 17.5V12.2667H5.83333C5.50196 12.2667 5.23333 11.998 5.23333 11.6667V8.33333C5.23333 8.00196 5.50196 7.73333 5.83333 7.73333H7.73333V6.66666C7.73333 5.40246 8.23553 4.19004 9.12946 3.29612ZM12.5 3.09999C11.5541 3.09999 10.6469 3.47577 9.97799 4.14465C9.30911 4.81353 8.93333 5.72072 8.93333 6.66666V8.33333C8.93333 8.6647 8.6647 8.93333 8.33333 8.93333H6.43333V11.0667H8.33333C8.6647 11.0667 8.93333 11.3353 8.93333 11.6667V16.9H11.0667V11.6667C11.0667 11.3353 11.3353 11.0667 11.6667 11.0667H13.6982L14.2315 8.93333H11.6667C11.3353 8.93333 11.0667 8.6647 11.0667 8.33333V6.66666C11.0667 6.28652 11.2177 5.92194 11.4865 5.65314C11.7553 5.38434 12.1199 5.23333 12.5 5.23333H14.4V3.09999H12.5Z" fill="#0860C4"/>
</svg>
