<svg width="20" height="20" viewBox="0 0 20 20" fill="none" xmlns="http://www.w3.org/2000/svg">
<path fill-rule="evenodd" clip-rule="evenodd" d="M6.66667 3.93334C5.15709 3.93334 3.93333 5.15709 3.93333 6.66667V13.3333C3.93333 14.8429 5.15709 16.0667 6.66667 16.0667H13.3333C14.8429 16.0667 16.0667 14.8429 16.0667 13.3333V6.66667C16.0667 5.15709 14.8429 3.93334 13.3333 3.93334H6.66667ZM2.73333 6.66667C2.73333 4.49435 4.49435 2.73334 6.66667 2.73334H13.3333C15.5057 2.73334 17.2667 4.49435 17.2667 6.66667V13.3333C17.2667 15.5057 15.5057 17.2667 13.3333 17.2667H6.66667C4.49435 17.2667 2.73333 15.5057 2.73333 13.3333V6.66667ZM10 8.1C8.95066 8.1 8.1 8.95066 8.1 10C8.1 11.0493 8.95066 11.9 10 11.9C11.0493 11.9 11.9 11.0493 11.9 10C11.9 8.95066 11.0493 8.1 10 8.1ZM6.9 10C6.9 8.28792 8.28792 6.9 10 6.9C11.7121 6.9 13.1 8.28792 13.1 10C13.1 11.7121 11.7121 13.1 10 13.1C8.28792 13.1 6.9 11.7121 6.9 10Z" fill="#0860C4"/>
</svg>
