<svg width="20" height="20" viewBox="0 0 20 20" fill="none" xmlns="http://www.w3.org/2000/svg">
<path fill-rule="evenodd" clip-rule="evenodd" d="M5.00016 3.93325C4.41106 3.93325 3.9335 4.41081 3.9335 4.99991V14.9999C3.9335 15.589 4.41106 16.0666 5.00016 16.0666H15.0002C15.5893 16.0666 16.0668 15.589 16.0668 14.9999V4.99991C16.0668 4.41081 15.5893 3.93325 15.0002 3.93325H5.00016ZM2.7335 4.99991C2.7335 3.74807 3.74832 2.73325 5.00016 2.73325H15.0002C16.252 2.73325 17.2668 3.74807 17.2668 4.99991V14.9999C17.2668 16.2518 16.252 17.2666 15.0002 17.2666H5.00016C3.74832 17.2666 2.7335 16.2518 2.7335 14.9999V4.99991ZM6.66683 6.06658C6.9982 6.06658 7.26683 6.33521 7.26683 6.66658V6.67491C7.26683 7.00628 6.9982 7.27491 6.66683 7.27491C6.33546 7.27491 6.06683 7.00628 6.06683 6.67491V6.66658C6.06683 6.33521 6.33546 6.06658 6.66683 6.06658ZM6.66683 8.56658C6.9982 8.56658 7.26683 8.83521 7.26683 9.16658V13.3332C7.26683 13.6646 6.9982 13.9332 6.66683 13.9332C6.33546 13.9332 6.06683 13.6646 6.06683 13.3332V9.16658C6.06683 8.83521 6.33546 8.56658 6.66683 8.56658ZM10.5248 8.87528C10.4224 8.69115 10.2258 8.56658 10.0002 8.56658C9.66879 8.56658 9.40016 8.83521 9.40016 9.16658V10.8332V13.3332C9.40016 13.6646 9.66879 13.9332 10.0002 13.9332C10.3315 13.9332 10.6002 13.6646 10.6002 13.3332V10.8332C10.6002 10.5503 10.7125 10.279 10.9126 10.079C11.1126 9.87896 11.3839 9.76658 11.6668 9.76658C11.9497 9.76658 12.221 9.87896 12.4211 10.079C12.6211 10.279 12.7335 10.5503 12.7335 10.8332V13.3332C12.7335 13.6646 13.0021 13.9332 13.3335 13.9332C13.6649 13.9332 13.9335 13.6646 13.9335 13.3332V10.8332C13.9335 10.2321 13.6947 9.65555 13.2696 9.23047C12.8445 8.80539 12.268 8.56658 11.6668 8.56658C11.2621 8.56658 10.8685 8.67482 10.5248 8.87528Z" fill="#0860C4"/>
</svg>
