<svg width="20" height="20" viewBox="0 0 20 20" fill="none" xmlns="http://www.w3.org/2000/svg">
<path fill-rule="evenodd" clip-rule="evenodd" d="M3.14097 5.53955L9.99999 10.1122L16.859 5.53955C16.7314 5.09332 16.3205 4.76668 15.8333 4.76668H4.16666C3.67946 4.76668 3.26854 5.09332 3.14097 5.53955ZM16.9 6.95446L10.3328 11.3326C10.1313 11.4669 9.86871 11.4669 9.66717 11.3326L3.09999 6.95446V14.1667C3.09999 14.7558 3.57756 15.2333 4.16666 15.2333H15.8333C16.4224 15.2333 16.9 14.7558 16.9 14.1667V6.95446ZM1.89999 5.83335C1.89999 4.5815 2.91481 3.56668 4.16666 3.56668H15.8333C17.0852 3.56668 18.1 4.5815 18.1 5.83335V14.1667C18.1 15.4185 17.0852 16.4333 15.8333 16.4333H4.16666C2.91481 16.4333 1.89999 15.4185 1.89999 14.1667V5.83335Z" fill="white"/>
</svg>
