<svg width="24" height="24" viewBox="0 0 24 24" fill="none" xmlns="http://www.w3.org/2000/svg">
<path fill-rule="evenodd" clip-rule="evenodd" d="M10 3.5999C6.4654 3.5999 3.60002 6.46528 3.60002 9.9999C3.60002 13.5345 6.4654 16.3999 10 16.3999C13.5346 16.3999 16.4 13.5345 16.4 9.9999C16.4 6.46528 13.5346 3.5999 10 3.5999ZM2.40002 9.9999C2.40002 5.80254 5.80266 2.3999 10 2.3999C14.1974 2.3999 17.6 5.80254 17.6 9.9999C17.6 11.8826 16.9154 13.6054 15.7816 14.933L21.4243 20.5756C21.6586 20.81 21.6586 21.1899 21.4243 21.4242C21.19 21.6585 20.8101 21.6585 20.5758 21.4242L14.9331 15.7815C13.6055 16.9153 11.8827 17.5999 10 17.5999C5.80266 17.5999 2.40002 14.1973 2.40002 9.9999Z" fill="white"/>
</svg>
