<svg width="20" height="20" viewBox="0 0 20 20" fill="none" xmlns="http://www.w3.org/2000/svg">
<path fill-rule="evenodd" clip-rule="evenodd" d="M16.009 3.49225C14.8632 2.45663 13.3174 2.48717 11.9729 2.9906C10.42 3.57212 9.37902 5.00742 9.4 6.67059V6.89321C7.1386 6.78031 5.14845 5.67129 3.82119 3.81739C3.7018 3.65063 3.50549 3.5564 3.30069 3.56756C3.0959 3.57871 2.91099 3.69371 2.81042 3.87246L3.33333 4.16667C2.81042 3.87246 2.81025 3.87275 2.81008 3.87307L2.80966 3.87381L2.80858 3.87574L2.8055 3.8813L2.79575 3.89916C2.78771 3.91403 2.77666 3.93478 2.76302 3.96113C2.73575 4.01381 2.69808 4.08899 2.65346 4.18432C2.56434 4.37477 2.44691 4.64698 2.32922 4.9822C2.09501 5.64929 1.85348 6.58377 1.84315 7.62939C1.83279 8.67963 2.05609 9.85202 2.76236 10.9679C3.32919 11.8635 4.18896 12.6939 5.43199 13.3911C4.23885 14.0638 3.05233 14.4535 1.69 14.4005C1.41155 14.3896 1.16229 14.5719 1.08824 14.8406C1.01419 15.1092 1.13485 15.3935 1.37952 15.5268C4.23734 17.0845 7.40578 17.6502 10.1956 16.8404L10.1957 16.8403C13.3671 15.9191 15.9819 13.5343 16.9818 9.97477L16.9826 9.97188C17.2698 8.92963 17.4163 7.8538 17.4185 6.77298C17.4196 6.77045 17.4207 6.76781 17.4219 6.76505C17.4501 6.70088 17.4942 6.60936 17.5543 6.48989C17.6202 6.35891 17.6954 6.2134 17.7787 6.0521C17.8511 5.91203 17.9296 5.76004 18.0136 5.5953C18.3487 4.93748 18.7589 4.0998 18.9109 3.50412C18.9256 3.452 18.9333 3.39743 18.9333 3.34167V3.34084C18.9333 3.03762 18.7071 2.78206 18.4061 2.74527C18.2767 2.72944 18.1509 2.75623 18.0438 2.81532C17.4766 3.0898 16.9346 3.23821 16.3243 3.40535C16.2213 3.43355 16.1164 3.46229 16.009 3.49225ZM17.2743 4.38421C17.0338 4.45669 16.797 4.52133 16.567 4.58416C16.3738 4.63692 16.1853 4.68839 16.0032 4.74214C15.7799 4.80802 15.5387 4.73882 15.3843 4.5646C14.6803 3.77021 13.6007 3.66243 12.3937 4.1144C11.2864 4.52905 10.5844 5.52844 10.5999 6.65844L10.6001 6.66667H10.6V7.5C10.6 7.8254 10.3406 8.09149 10.0153 8.09981C7.45781 8.16522 5.14142 7.14452 3.48573 5.31158C3.47765 5.33393 3.46956 5.35664 3.46146 5.37971C3.25531 5.96691 3.05173 6.76676 3.0431 7.64124C3.03451 8.5111 3.21839 9.4446 3.77633 10.3261C4.33342 11.2063 5.29161 12.0793 6.90645 12.7833C7.10771 12.8711 7.24498 13.0617 7.26433 13.2804C7.28369 13.4992 7.18203 13.711 6.9993 13.8327C6.01222 14.4902 4.99742 15.0362 3.88382 15.3415C5.94417 16.0774 8.02639 16.2205 9.86095 15.688C12.6558 14.8761 14.9441 12.7897 15.8261 9.65172C16.0919 8.68654 16.2239 7.68942 16.2183 6.68832C16.2177 6.56779 16.2528 6.46483 16.2634 6.43378L16.2642 6.43142C16.2813 6.38125 16.3024 6.32995 16.3229 6.28324C16.3644 6.18869 16.4204 6.07383 16.4822 5.95084C16.5481 5.8198 16.6302 5.6609 16.7181 5.49054C16.7914 5.34866 16.8688 5.19884 16.9443 5.05054C17.058 4.82745 17.1704 4.602 17.2743 4.38421ZM17.4003 6.8178C17.4006 6.81703 17.401 6.81579 17.4017 6.81404C17.3986 6.82489 17.3972 6.82699 17.4003 6.8178Z" fill="#0860C4"/>
</svg>
